<svg xmlns="http://www.w3.org/2000/svg" viewBox="0 0 230 233" role="img" aria-label="LVIS">
  <path d="M124.324 0C133.691 3.96939e-05 142.927 0.236899 150.968 0.474324C159.069 0.71354 165.834 0.948529 170.467 0.948648C180.921 0.948648 189.07 3.58168 195.117 8.70088C201.106 13.7718 204.361 20.7168 206.19 28.0296C207.732 34.1999 207.697 39.5215 206.523 44.2307C208.331 50.0782 209.712 57.0422 210.814 62.9962C211.427 66.3079 211.946 69.2569 212.437 71.7712C212.946 74.3724 213.336 76.0347 213.623 76.8479C213.957 77.7925 214.768 79.2551 216.165 81.3614C217.543 83.4369 219.114 85.5906 220.871 88.1057C222.557 90.5176 224.336 93.1596 225.793 95.7987C227.221 98.3865 228.554 101.343 229.054 104.374C230.332 112.139 230.315 121.282 228.994 129.987C227.682 138.633 225.006 147.358 220.582 153.992C213.056 165.281 213.198 165.063 209.554 172.35C208.68 174.098 207.814 176.168 206.634 178.813C205.508 181.337 204.179 184.188 202.558 186.995C199.35 192.549 194.658 198.54 187.291 201.61C185.329 202.427 181.87 203.567 178.153 203.759C176.65 203.837 174.868 203.743 173.046 203.307C172.627 203.948 172.195 204.595 171.727 205.219C169.5 208.189 166.512 211.358 163.256 214.335C156.895 220.152 148.581 226.091 141.719 228.328C130.936 231.841 122.29 232.918 114.215 232.523C106.269 232.133 99.089 230.314 91.5885 228.439C82.7635 226.233 74.7278 220.848 68.5467 215.291C64.1528 211.341 60.4069 207.029 57.7781 203.211C55.8281 204.824 53.8102 206.31 51.7971 207.458C50.0367 208.461 48.0598 209.348 46.0089 209.785C43.9582 210.221 41.3879 210.29 38.9089 209.051C37.1818 208.187 35.5049 206.698 34.0989 205.249C32.5834 203.687 30.9698 201.732 29.3853 199.513C26.2259 195.086 22.9867 189.318 20.8771 182.993C18.9619 177.25 17.1247 171.729 15.3038 167.17C14.3967 164.898 13.537 162.976 12.7247 161.455C11.8774 159.869 11.2436 159.03 10.8867 158.676C5.71651 153.559 2.61181 144.439 1.11856 135.138C-0.424271 125.526 -0.455565 114.412 1.55583 104.203C3.58796 93.8912 6.81532 87.8086 9.44888 83.3106C12.1815 78.6433 13.0306 77.3293 12.9989 75.0247C12.9219 69.5205 12.7195 63.2082 14.2885 56.7558C15.9137 50.0743 19.3449 43.465 26.0428 36.7675C29.3566 33.4543 32.5668 31.357 35.6701 30.0381C38.7566 28.7264 41.4992 28.2914 43.5928 28.0296C46.0027 27.7283 46.6765 27.6866 47.2836 27.4589C47.3119 27.4509 47.424 27.5186 47.7505 26.866C50.4226 21.5219 53.2336 17.1028 57.452 13.4589C61.6453 9.83694 66.8216 7.32791 73.6383 5.03969C85.9599 0.904352 105.897 0 124.324 0ZM105.789 118.581L105.774 119.248C105.119 132.185 94.7427 142.562 81.8055 143.216L80.5086 143.246H75.4466L74.2756 143.216C62.8773 142.639 53.7162 133.677 52.7828 122.376H43.7559C44.7209 128.15 45.897 133.744 46.9798 138.073C48.5294 144.264 53.363 150.917 59.1788 158.187C61.9353 161.633 64.9319 165.251 67.4054 168.652C69.8569 172.023 72.1811 175.686 73.4159 179.391C73.973 181.063 73.7285 182.575 73.5493 183.356C73.3437 184.252 73.0124 185.082 72.6896 185.772C72.0381 187.164 71.1087 188.652 70.0882 190.093C68.9651 191.679 67.5936 193.386 66.0787 195.11C67.9045 198.154 71.432 202.585 76.1507 206.828C81.5751 211.705 87.9933 215.808 94.3455 217.396C102.023 219.315 108.125 220.828 114.771 221.154C121.289 221.473 128.549 220.649 138.191 217.507C142.737 216.026 149.606 211.392 155.57 205.938C158.476 203.281 160.937 200.636 162.619 198.393C163.226 197.583 163.668 196.866 164.004 196.281C162.413 194 160.999 191.683 159.891 189.596C159.137 188.177 158.478 186.785 157.994 185.527C157.591 184.48 157.03 182.838 157.03 181.192C157.03 179.873 157.434 178.737 157.646 178.183C157.912 177.485 158.253 176.775 158.602 176.108C159.303 174.764 160.254 173.192 161.314 171.527C163.446 168.179 166.295 164.051 169.192 159.907C172.122 155.717 175.103 151.505 177.612 147.833C180.188 144.063 181.995 141.245 182.74 139.755C184.222 136.792 185.435 132.063 186.246 126.326C186.429 125.032 186.583 123.71 186.72 122.376H173.698C171.676 133.82 161.983 142.615 150.108 143.216L148.811 143.246H143.749L142.578 143.216C130.936 142.626 121.601 133.291 121.011 121.649L120.982 120.478C120.982 119.835 121.037 119.203 121.115 118.581H105.789ZM124.324 11.3838C105.636 11.3838 87.5419 12.3774 77.255 15.8306C71.1043 17.8954 67.4982 19.821 64.8929 22.0709C62.3125 24.2998 60.3039 27.1952 57.9263 31.9502C56.36 35.0828 54.0973 37.0592 51.2783 38.1164C49.0407 38.9553 46.3929 39.1514 45.0084 39.3244C43.3079 39.537 41.7801 39.814 40.1243 40.5177C38.4845 41.2146 36.4701 42.4381 34.0915 44.8162C28.7913 50.116 26.4522 54.8987 25.3461 59.4462C24.1853 64.2212 24.2931 68.9853 24.3753 74.8617C24.4617 81.0397 21.4026 85.4174 19.2689 89.0618C17.0349 92.8773 14.4315 97.7378 12.7247 106.397C10.9959 115.169 11.0042 124.929 12.3541 133.337C13.7541 142.057 16.4006 148.111 18.8983 150.583C20.4483 152.118 21.7153 154.121 22.767 156.09C23.854 158.124 24.8918 160.471 25.8798 162.945C27.8495 167.877 29.7942 173.75 31.6754 179.391C33.3622 184.449 36.0179 189.215 38.6495 192.902C39.9599 194.738 41.2185 196.239 42.2736 197.326C42.9274 198 43.4045 198.405 43.6891 198.631C44.1944 198.514 45.0181 198.213 46.1571 197.563C48.5083 196.223 51.3095 193.961 54.0502 191.279C56.7623 188.625 59.1783 185.794 60.7945 183.512C61.3492 182.728 61.7455 182.068 62.0322 181.562C61.2373 179.84 59.9643 177.787 58.1931 175.352C55.9242 172.232 53.2274 168.97 50.2926 165.302C44.7265 158.344 38.1771 149.816 35.9295 140.83C34.2227 134.006 32.2627 124.275 31.2159 115.209C30.6931 110.68 30.3826 106.18 30.4748 102.232C30.562 98.4985 31.0127 94.4416 32.5796 91.3445C36.5582 83.3922 41.5128 75.8946 47.1651 69.9925C52.7729 64.137 59.4465 59.4695 66.9014 57.9787C86.3109 54.0973 98.8236 53.9137 111.555 58.1566C123.408 62.1078 129.427 65.4562 143.905 65.4567C170.21 65.4567 179.537 61.6184 185.416 55.7405C189.314 51.8419 192.371 48.6816 194.22 44.92C195.918 41.4652 196.74 37.1588 195.147 30.7866C193.657 24.8292 191.3 20.3886 187.765 17.3944C184.286 14.4489 178.986 12.3324 170.467 12.3324C165.614 12.3323 158.584 12.0931 150.627 11.8581C142.606 11.6213 133.513 11.3838 124.324 11.3838ZM198.371 58.668C196.72 60.5329 195.031 62.2303 193.472 63.7892C191.877 65.3839 190.147 66.7955 188.262 68.0729C190.151 72.5189 192.385 78.775 194.272 85.1931C196.657 93.3029 198.771 102.521 198.771 109.095C198.771 115.002 198.392 121.675 197.511 127.912C196.647 134.03 195.235 140.214 192.923 144.839C191.771 147.145 189.494 150.614 187.009 154.252C184.454 157.991 181.389 162.318 178.516 166.428C175.61 170.584 172.895 174.528 170.912 177.642C169.916 179.206 169.167 180.461 168.688 181.377C168.671 181.41 168.653 181.442 168.637 181.473C168.911 182.178 169.349 183.124 169.948 184.253C171.167 186.548 172.89 189.286 174.818 191.79C174.949 191.961 175.493 192.497 177.56 192.39C179.528 192.289 181.657 191.623 182.911 191.101C186.927 189.427 190.023 185.94 192.701 181.303C194.021 179.017 195.156 176.595 196.236 174.173C197.263 171.871 198.348 169.312 199.371 167.266C203.315 159.378 203.459 159.155 211.111 147.678C214.277 142.929 216.565 136 217.736 128.282C218.898 120.625 218.882 112.69 217.818 106.226C217.628 105.072 217.011 103.443 215.832 101.305C214.68 99.2176 213.184 96.9788 211.541 94.6277C209.97 92.3809 208.15 89.8786 206.679 87.661C205.229 85.4757 203.729 83.003 202.892 80.6277C202.286 78.9106 201.757 76.4543 201.269 73.9575C200.763 71.3745 200.209 68.2385 199.623 65.0713C199.231 62.9544 198.809 60.7981 198.371 58.668ZM136.16 116.684C134.064 116.684 132.366 118.383 132.366 120.478C132.366 126.765 137.462 131.862 143.749 131.862H148.811C156.493 131.861 162.721 125.633 162.722 117.951C162.722 117.253 162.154 116.684 161.455 116.684H136.16ZM67.8574 116.684C65.7617 116.684 64.0629 118.383 64.0629 120.478C64.0629 126.765 69.1595 131.862 75.4466 131.862H80.5086C88.1908 131.861 94.4183 125.633 94.4196 117.951C94.4196 117.253 93.8508 116.684 93.1523 116.684H67.8574ZM107.96 68.9623C97.9247 65.6172 87.6703 65.4329 69.1322 69.1402C64.8215 70.0024 60.114 72.9247 55.3842 77.8633C50.7046 82.7498 46.3635 89.2428 42.7553 96.4583L42.7405 96.4879C42.3881 97.1863 41.9389 99.0601 41.8586 102.498C41.8008 104.975 41.9416 107.863 42.2291 110.992H56.0216C58.8034 107.526 63.0672 105.3 67.8574 105.3H93.1523C96.6017 105.3 99.7263 106.684 102.009 108.924V107.197H128.571V107.345C130.805 106.052 133.393 105.3 136.16 105.3H161.455C165.867 105.3 169.745 107.566 172.009 110.992H187.357C187.367 110.352 187.387 109.719 187.387 109.095C187.387 104.285 185.706 96.4262 183.348 88.4096C181.585 82.4148 179.592 76.8132 177.997 72.9866C169.745 75.655 158.922 76.8405 143.905 76.8405C127.099 76.8399 118.871 72.5995 107.96 68.9623Z" fill="#14161d" />
</svg>
